HIERARCHY
ROOT pelvis
{
  OFFSET 0 100 0
  CHANNELS 6 Xposition Yposition Zposition Zrotation Xrotation Yrotation
  JOINT pelvis_right_femur
  {
    OFFSET -10.78128 -3.44521 -0.5502486
    CHANNELS 3 Zrotation Xrotation Yrotation
    JOINT right_femur_tibia
    {
      OFFSET -0.8047443 -44.0398 -0.1307829
      CHANNELS 3 Zrotation Xrotation Yrotation
      JOINT right_tibia_foot
      {
        OFFSET 3.006224 -47.83518 -5
        CHANNELS 3 Zrotation Xrotation Yrotation
        End Site
        {
          OFFSET 0 -5 15
        }
      }
    }
  }
  JOINT pelvis_left_femur
  {
    OFFSET 10.78128 -3.44521 -0.5502486
    CHANNELS 3 Zrotation Xrotation Yrotation
    JOINT left_femur_tibia
    {
      OFFSET 0.8047443 -44.0398 -0.1307829
      CHANNELS 3 Zrotation Xrotation Yrotation
      JOINT left_tibia_foot
      {
        OFFSET -4.370144 -48.10324 -4.275266
        CHANNELS 3 Zrotation Xrotation Yrotation
        End Site
        {
          OFFSET 0 -5 15
        }
      }
    }
  }
  JOINT pelvis_spine1
  {
    OFFSET 0 6.468898 -3.129235
    CHANNELS 3 Zrotation Xrotation Yrotation
    JOINT spine1
    {
      OFFSET 0 23.15396 4.99043
      CHANNELS 3 Zrotation Xrotation Yrotation
      JOINT spine2
      {
        OFFSET 0 20.79997 -5.064912
        CHANNELS 3 Zrotation Xrotation Yrotation
        JOINT neck
        {
          OFFSET 0 14.38658 9.616178
          CHANNELS 3 Zrotation Xrotation Yrotation
          End Site
          {
            OFFSET 0 20 0
          }
        }
      }
      JOINT right_manubrium
      {
        OFFSET -5.722621 16.35077 3.967754
        CHANNELS 3 Zrotation Xrotation Yrotation
        JOINT right_clavicle
        {
          OFFSET -13.16364 1.694482 -4.693211
          CHANNELS 3 Zrotation Xrotation Yrotation
          JOINT right_humerus
          {
            OFFSET -28.5034 -0.3100689 -2.792744
            CHANNELS 3 Zrotation Xrotation Yrotation
            JOINT right_radius
            {
              OFFSET -25.15693 0.02248979 -1.271978
              CHANNELS 3 Zrotation Xrotation Yrotation
              End Site
              {
                OFFSET -15 0 0
              }
            }
          }
        }
      }
      JOINT left_manubrium
      {
        OFFSET 5.722621 16.35077 3.967754
        CHANNELS 3 Zrotation Xrotation Yrotation
        JOINT left_clavicle
        {
          OFFSET 13.16364 1.694482 -4.693211
          CHANNELS 3 Zrotation Xrotation Yrotation
          JOINT left_humerus
          {
            OFFSET 29.39168 -1.063119 -2.237045
            CHANNELS 3 Zrotation Xrotation Yrotation
            JOINT left_radius
            {
              OFFSET 24.59957 -0.9528479 0.9047498
              CHANNELS 3 Zrotation Xrotation Yrotation
              End Site
              {
                OFFSET 15 -0 -0
              }
            }
          }
        }
      }
    }
  }
}
MOTION
Frames: 10
Frame Time: 0.0416666666667
27.0571 104.5494 232.3095 1.511082 -6.386952 0.9727866 1.437094 9.473887 6.99968 -9.418671e-10 33.62278 -2.636995e-09 5.896458 -10.90835 -3.220809 -2.938081 -17.14165 -9.010905 1.614895e-09 19.79528 -5.482822e-10 -3.826558 -9.204697 20.14653 -1.612674 0.1182139 8.114947 -0.9743023 9.592933 -2.879011 2.882602 21.48682 5.548723 1.79822 -17.36515 8.602174 2.153721 -21.24654 10.83965 81.05972 24.61937 -5.724329 -8.49852e-10 4.871771e-10 25.16274 -23.36529 13.14739 13.37253 3.822966 -13.8288 -3.002724 -93.47872 21.84496 25.21436 1.960542e-10 2.528643e-10 -10.54967 -0.5243778 6.737113 14.71002
28.2794 104.8149 238.5439 1.751394 -6.853415 1.244851 0.8965841 8.056565 7.046353 -6.819323e-10 40.36665 -3.006637e-09 5.888125 -8.763217 -3.834772 -3.955638 -14.22575 -9.916075 4.005067e-10 21.14826 -7.02623e-10 -3.560726 -9.515952 19.99672 -1.914987 0.01970457 7.64445 -1.086997 9.602981 -2.964384 2.889957 21.73573 5.683131 1.825353 -17.17396 8.76139 2.445823 -20.37987 10.73237 81.47655 24.83946 -6.452259 -5.079227e-10 8.088165e-10 23.72054 -22.93371 12.91083 12.85441 3.585165 -13.70505 -3.157046 -92.50591 22.37099 24.02653 1.00828e-10 4.066586e-10 -10.39501 -0.3466387 6.925216 14.56719
29.48161 105.4686 244.5203 2.065221 -7.483223 1.787457 0.3116533 5.059128 6.930166 2.527623e-10 47.76164 -3.833335e-09 5.927706 -6.965415 -4.730871 -4.996284 -10.30077 -10.83051 -3.188947e-10 21.57633 -1.470383e-09 -3.12351 -10.38588 19.66909 -2.296914 0.06787622 6.981214 -1.154789 9.644843 -3.243456 2.853227 22.14645 5.851212 1.764874 -16.87372 8.990251 2.732753 -19.42357 10.66266 82.52926 25.16569 -7.711963 -2.21754e-10 1.439792e-09 21.99868 -22.44098 12.80249 12.23046 3.409955 -13.88039 -3.482888 -91.26005 23.01248 22.11045 9.662943e-11 4.913333e-10 -11.04934 -0.03195023 7.196357 14.26899
30.61629 106.3422 250.0822 2.277662 -7.998427 2.552792 0.004735818 0.584073 6.6778 1.699232e-09 53.16892 -4.848027e-09 5.658211 -6.420496 -5.775711 -5.689456 -5.678116 -11.61292 -2.74436e-10 21.19045 -2.776775e-09 -2.680996 -11.54245 19.04972 -2.591662 0.2484115 6.129526 -1.042661 9.583421 -3.741278 2.786064 22.54737 5.915278 1.574102 -16.53308 9.186294 2.936868 -18.41365 10.56782 83.72749 25.59043 -9.350474 6.84799e-11 2.217464e-09 20.09419 -21.40732 12.79453 11.32657 3.319395 -14.3236 -3.839817 -89.60864 23.78532 19.59824 2.711971e-10 3.947903e-10 -12.32016 0.3791481 7.645416 13.75538
31.67037 107.2296 255.2791 2.371687 -8.199688 3.472757 -0.02704267 -4.534109 6.20927 2.859894e-09 55.49162 -5.525524e-09 5.159709 -6.537875 -6.662695 -6.028675 -1.026062 -12.18593 3.820301e-10 19.88092 -4.12443e-09 -2.344246 -12.9037 18.27812 -2.747135 0.4630592 5.247029 -0.8063842 9.414848 -4.315199 2.718839 22.85531 5.931465 1.370275 -16.32054 9.346861 2.977131 -17.50559 10.44321 84.97719 25.91849 -11.09886 3.031487e-10 2.820445e-09 18.27684 -20.24972 12.78089 10.42335 3.412699 -14.94828 -4.160112 -87.98186 24.38453 16.96688 5.232611e-10 1.692145e-10 -13.99021 0.9263512 8.197444 13.0032
32.64489 107.8955 260.2837 2.386235 -8.053318 4.452479 0.142349 -9.591941 5.575206 3.081281e-09 53.89562 -5.287239e-09 4.645811 -7.054825 -7.297459 -6.078067 3.219748 -12.48453 1.224577e-09 17.72728 -4.809298e-09 -2.13367 -14.45623 17.62331 -2.799532 0.6416275 4.461179 -0.4923725 9.142341 -4.868209 2.685344 23.03727 5.924169 1.220621 -16.2173 9.460909 2.828486 -16.72068 10.27682 86.11902 26.06834 -12.77195 4.798959e-10 3.004422e-09 16.65918 -19.27835 12.73766 9.689019 3.781652 -15.69108 -4.373054 -86.54533 24.6555 14.33228 7.489753e-10 -1.157354e-10 -15.99058 1.567935 8.729813 12.05008
33.50627 108.1266 265.0592 2.362354 -7.70706 5.390717 0.4632523 -14.54615 4.923806 2.982023e-09 48.93222 -4.515077e-09 3.962063 -7.923348 -7.694726 -5.980527 6.931922 -12.6694 2.214888e-09 15.32867 -4.670751e-09 -1.800686 -16.191 17.35369 -2.823097 0.8588644 3.767862 -0.1064543 8.828421 -5.374569 2.6498 23.0909 5.921148 1.171274 -16.16022 9.482346 2.625036 -15.96478 10.10356 86.67431 26.23137 -14.28125 4.591347e-10 2.858812e-09 15.05705 -18.26384 12.546 8.973698 4.381633 -16.52409 -4.481854 -84.96606 24.71923 11.5644 8.612642e-10 -3.927906e-10 -18.17859 2.290373 9.291814 10.87701
34.28147 107.9213 270.0392 2.294572 -7.108882 6.213196 0.7936438 -18.48002 4.163221 2.017698e-09 41.71557 -3.13801e-09 3.545507 -8.557469 -7.976073 -5.790687 10.30047 -12.49389 2.457461e-09 13.43912 -3.570944e-09 -1.826656 -17.68188 17.08557 -2.814605 0.8755575 3.224067 0.2666933 8.413573 -5.809318 2.70158 23.15216 5.885809 1.17878 -16.15476 9.488478 2.283808 -15.16684 9.863256 87.61542 26.27451 -15.79412 7.319887e-10 2.15194e-09 13.46311 -17.788 12.4562 8.569991 5.148417 -17.3544 -4.415576 -83.92148 24.44705 8.850475 9.082784e-10 -6.554788e-10 -20.50582 3.043388 9.650397 9.708444
34.93019 107.2464 275.1025 2.252506 -6.582829 6.879149 1.125789 -21.86746 3.486172 1.638694e-09 33.84175 -2.127913e-09 2.917156 -9.455335 -8.160429 -5.627764 13.11006 -12.32242 2.413457e-09 12.39688 -2.011362e-09 -1.667982 -19.01351 17.13385 -2.85113 0.9194641 2.761893 0.6420354 8.028581 -6.187777 2.733735 23.24705 5.836988 1.238514 -16.10929 9.412827 2.002751 -14.33699 9.658688 88.18285 26.47096 -17.17633 1.004211e-09 1.369266e-09 11.75716 -17.17992 12.23799 8.079652 5.925658 -18.19793 -4.289392 -82.767 24.16607 6.078643 8.486995e-10 -8.599172e-10 -22.75448 3.846991 10.07846 8.438304
35.42907 106.2306 280.1805 2.189807 -6.155949 7.379657 1.434806 -24.50668 2.891263 1.621994e-09 26.97281 -1.406614e-09 2.019276 -10.42971 -8.293367 -5.47548 15.41106 -12.18263 2.026223e-09 12.55832 -5.537762e-10 -1.499245 -19.85888 17.14097 -2.881797 0.9560358 2.337601 0.9882323 7.662155 -6.504395 2.746106 23.38998 5.74224 1.296035 -16.05486 9.273141 1.796616 -13.48679 9.477207 88.52902 26.808 -18.38057 1.398651e-09 6.531535e-10 9.975413 -16.38441 11.92848 7.49726 6.534053 -18.93439 -4.128214 -81.56379 23.95839 3.504354 7.664065e-10 -1.040921e-09 -24.59539 4.667409 10.56674 7.180865
